<mxfile host="app.diagrams.net" modified="2023-08-31T06:58:42.847Z" agent="Mozilla/5.0 (Macintosh; Intel Mac OS X 10_15_7) AppleWebKit/537.36 (KHTML, like Gecko) Chrome/116.0.0.0 Safari/537.36" etag="Qq5qAfs2lVEUKXybl2z_" version="21.7.0" type="device">
  <diagram name="Page-1" id="3Da-K6MAal7oWcjGSvR0">
    <mxGraphModel dx="507" dy="638" grid="1" gridSize="10" guides="1" tooltips="1" connect="1" arrows="1" fold="1" page="1" pageScale="1" pageWidth="500" pageHeight="350" math="0" shadow="0">
      <root>
        <mxCell id="0" />
        <mxCell id="1" parent="0" />
        <mxCell id="ApE8lTeV0Uj58Px4gvST-79" value="" style="rounded=0;whiteSpace=wrap;html=1;fillOpacity=50;strokeWidth=0;fillColor=#ffe6cc;strokeColor=none;shadow=0;glass=0;" parent="1" vertex="1">
          <mxGeometry x="30" y="410" width="430" height="170" as="geometry" />
        </mxCell>
        <mxCell id="ApE8lTeV0Uj58Px4gvST-78" value="" style="rounded=0;whiteSpace=wrap;html=1;fillOpacity=50;strokeWidth=0;fillColor=#e1d5e7;strokeColor=none;" parent="1" vertex="1">
          <mxGeometry y="600" width="500" height="80" as="geometry" />
        </mxCell>
        <mxCell id="ApE8lTeV0Uj58Px4gvST-1" value="2" style="rounded=0;whiteSpace=wrap;html=1;fontFamily=Verdana;" parent="1" vertex="1">
          <mxGeometry x="90" y="610" width="20" height="20" as="geometry" />
        </mxCell>
        <mxCell id="ApE8lTeV0Uj58Px4gvST-2" value="2" style="rounded=0;whiteSpace=wrap;html=1;fontFamily=Verdana;" parent="1" vertex="1">
          <mxGeometry x="90" y="630" width="20" height="20" as="geometry" />
        </mxCell>
        <mxCell id="ApE8lTeV0Uj58Px4gvST-3" value="A" style="rounded=0;whiteSpace=wrap;html=1;fontFamily=Verdana;" parent="1" vertex="1">
          <mxGeometry x="90" y="650" width="20" height="20" as="geometry" />
        </mxCell>
        <mxCell id="ApE8lTeV0Uj58Px4gvST-5" value="d" style="ellipse;whiteSpace=wrap;html=1;aspect=fixed;" parent="1" vertex="1">
          <mxGeometry x="10" y="610" width="20" height="20" as="geometry" />
        </mxCell>
        <mxCell id="ApE8lTeV0Uj58Px4gvST-6" value="·" style="rounded=0;whiteSpace=wrap;html=1;fontFamily=Verdana;strokeColor=#000000;" parent="1" vertex="1">
          <mxGeometry x="50" y="610" width="20" height="20" as="geometry" />
        </mxCell>
        <mxCell id="ApE8lTeV0Uj58Px4gvST-7" value="5" style="rounded=0;whiteSpace=wrap;html=1;fontFamily=Verdana;" parent="1" vertex="1">
          <mxGeometry x="50" y="630" width="20" height="20" as="geometry" />
        </mxCell>
        <mxCell id="ApE8lTeV0Uj58Px4gvST-8" value="" style="endArrow=blockThin;html=1;exitX=1;exitY=0.5;exitDx=0;exitDy=0;entryX=0;entryY=0.5;entryDx=0;entryDy=0;rounded=0;endFill=1;" parent="1" source="ApE8lTeV0Uj58Px4gvST-5" target="ApE8lTeV0Uj58Px4gvST-6" edge="1">
          <mxGeometry width="50" height="50" relative="1" as="geometry">
            <mxPoint x="150" y="820" as="sourcePoint" />
            <mxPoint x="200" y="770" as="targetPoint" />
          </mxGeometry>
        </mxCell>
        <mxCell id="ApE8lTeV0Uj58Px4gvST-9" value="" style="endArrow=blockThin;html=1;rounded=0;entryX=0;entryY=0.5;entryDx=0;entryDy=0;endFill=1;" parent="1" source="ApE8lTeV0Uj58Px4gvST-6" target="ApE8lTeV0Uj58Px4gvST-1" edge="1">
          <mxGeometry width="50" height="50" relative="1" as="geometry">
            <mxPoint x="40" y="630" as="sourcePoint" />
            <mxPoint x="60" y="630" as="targetPoint" />
          </mxGeometry>
        </mxCell>
        <mxCell id="ApE8lTeV0Uj58Px4gvST-15" value="·" style="rounded=0;whiteSpace=wrap;html=1;fontFamily=Verdana;strokeColor=#000000;fillOpacity=100;opacity=50;textOpacity=50;" parent="1" vertex="1">
          <mxGeometry x="40" y="550" width="20" height="20" as="geometry" />
        </mxCell>
        <mxCell id="ApE8lTeV0Uj58Px4gvST-16" value="·" style="rounded=0;whiteSpace=wrap;html=1;fontFamily=Verdana;strokeColor=#000000;opacity=50;textOpacity=50;" parent="1" vertex="1">
          <mxGeometry x="60" y="550" width="20" height="20" as="geometry" />
        </mxCell>
        <mxCell id="ApE8lTeV0Uj58Px4gvST-17" value="·" style="rounded=0;whiteSpace=wrap;html=1;fontFamily=Verdana;strokeColor=#000000;opacity=50;textOpacity=50;" parent="1" vertex="1">
          <mxGeometry x="80" y="550" width="20" height="20" as="geometry" />
        </mxCell>
        <mxCell id="ApE8lTeV0Uj58Px4gvST-18" value="·" style="rounded=0;whiteSpace=wrap;html=1;fontFamily=Verdana;strokeColor=#000000;opacity=50;textOpacity=50;" parent="1" vertex="1">
          <mxGeometry x="100" y="550" width="20" height="20" as="geometry" />
        </mxCell>
        <mxCell id="ApE8lTeV0Uj58Px4gvST-20" value="" style="endArrow=blockThin;html=1;exitX=0.5;exitY=1;exitDx=0;exitDy=0;entryX=0.5;entryY=0;entryDx=0;entryDy=0;endFill=1;curved=1;opacity=50;" parent="1" source="ApE8lTeV0Uj58Px4gvST-16" target="ApE8lTeV0Uj58Px4gvST-6" edge="1">
          <mxGeometry width="50" height="50" relative="1" as="geometry">
            <mxPoint x="150" y="690" as="sourcePoint" />
            <mxPoint x="200" y="640" as="targetPoint" />
            <Array as="points">
              <mxPoint x="60" y="590" />
            </Array>
          </mxGeometry>
        </mxCell>
        <mxCell id="ApE8lTeV0Uj58Px4gvST-22" value="" style="endArrow=blockThin;html=1;exitX=0.5;exitY=1;exitDx=0;exitDy=0;entryX=0.5;entryY=0;entryDx=0;entryDy=0;endFill=1;curved=1;opacity=50;" parent="1" source="ApE8lTeV0Uj58Px4gvST-17" target="ApE8lTeV0Uj58Px4gvST-1" edge="1">
          <mxGeometry width="50" height="50" relative="1" as="geometry">
            <mxPoint x="50" y="580" as="sourcePoint" />
            <mxPoint x="70" y="620" as="targetPoint" />
            <Array as="points">
              <mxPoint x="100" y="590" />
            </Array>
          </mxGeometry>
        </mxCell>
        <mxCell id="ApE8lTeV0Uj58Px4gvST-23" value="·" style="rounded=0;whiteSpace=wrap;html=1;fontFamily=Verdana;strokeColor=#000000;opacity=50;textOpacity=50;" parent="1" vertex="1">
          <mxGeometry x="370" y="550" width="20" height="20" as="geometry" />
        </mxCell>
        <mxCell id="ApE8lTeV0Uj58Px4gvST-24" value="·" style="rounded=0;whiteSpace=wrap;html=1;fontFamily=Verdana;strokeColor=#000000;opacity=50;textOpacity=50;" parent="1" vertex="1">
          <mxGeometry x="390" y="550" width="20" height="20" as="geometry" />
        </mxCell>
        <mxCell id="ApE8lTeV0Uj58Px4gvST-25" value="·" style="rounded=0;whiteSpace=wrap;html=1;fontFamily=Verdana;strokeColor=#000000;opacity=50;textOpacity=50;" parent="1" vertex="1">
          <mxGeometry x="410" y="550" width="20" height="20" as="geometry" />
        </mxCell>
        <mxCell id="ApE8lTeV0Uj58Px4gvST-26" value="·" style="rounded=0;whiteSpace=wrap;html=1;fontFamily=Verdana;strokeColor=#000000;opacity=50;textOpacity=50;" parent="1" vertex="1">
          <mxGeometry x="430" y="550" width="20" height="20" as="geometry" />
        </mxCell>
        <mxCell id="ApE8lTeV0Uj58Px4gvST-28" value="3" style="rounded=0;whiteSpace=wrap;html=1;fontFamily=Verdana;" parent="1" vertex="1">
          <mxGeometry x="260" y="610" width="20" height="20" as="geometry" />
        </mxCell>
        <mxCell id="ApE8lTeV0Uj58Px4gvST-29" value="3" style="rounded=0;whiteSpace=wrap;html=1;fontFamily=Verdana;" parent="1" vertex="1">
          <mxGeometry x="260" y="630" width="20" height="20" as="geometry" />
        </mxCell>
        <mxCell id="ApE8lTeV0Uj58Px4gvST-30" value="A" style="rounded=0;whiteSpace=wrap;html=1;fontFamily=Verdana;" parent="1" vertex="1">
          <mxGeometry x="260" y="650" width="20" height="20" as="geometry" />
        </mxCell>
        <mxCell id="ApE8lTeV0Uj58Px4gvST-32" value="y" style="ellipse;whiteSpace=wrap;html=1;aspect=fixed;" parent="1" vertex="1">
          <mxGeometry x="180" y="610" width="20" height="20" as="geometry" />
        </mxCell>
        <mxCell id="ApE8lTeV0Uj58Px4gvST-33" value="·" style="rounded=0;whiteSpace=wrap;html=1;fontFamily=Verdana;strokeColor=#000000;" parent="1" vertex="1">
          <mxGeometry x="220" y="610" width="20" height="20" as="geometry" />
        </mxCell>
        <mxCell id="ApE8lTeV0Uj58Px4gvST-34" value="6" style="rounded=0;whiteSpace=wrap;html=1;fontFamily=Verdana;" parent="1" vertex="1">
          <mxGeometry x="220" y="630" width="20" height="20" as="geometry" />
        </mxCell>
        <mxCell id="ApE8lTeV0Uj58Px4gvST-35" value="" style="endArrow=blockThin;html=1;exitX=1;exitY=0.5;exitDx=0;exitDy=0;entryX=0;entryY=0.5;entryDx=0;entryDy=0;rounded=0;endFill=1;" parent="1" source="ApE8lTeV0Uj58Px4gvST-32" target="ApE8lTeV0Uj58Px4gvST-33" edge="1">
          <mxGeometry width="50" height="50" relative="1" as="geometry">
            <mxPoint x="320" y="820" as="sourcePoint" />
            <mxPoint x="370" y="770" as="targetPoint" />
          </mxGeometry>
        </mxCell>
        <mxCell id="ApE8lTeV0Uj58Px4gvST-36" value="" style="endArrow=blockThin;html=1;rounded=0;entryX=0;entryY=0.5;entryDx=0;entryDy=0;endFill=1;" parent="1" source="ApE8lTeV0Uj58Px4gvST-33" target="ApE8lTeV0Uj58Px4gvST-28" edge="1">
          <mxGeometry width="50" height="50" relative="1" as="geometry">
            <mxPoint x="210" y="630" as="sourcePoint" />
            <mxPoint x="230" y="630" as="targetPoint" />
          </mxGeometry>
        </mxCell>
        <mxCell id="ApE8lTeV0Uj58Px4gvST-39" value="1" style="rounded=0;whiteSpace=wrap;html=1;fontFamily=Verdana;" parent="1" vertex="1">
          <mxGeometry x="430" y="610" width="20" height="20" as="geometry" />
        </mxCell>
        <mxCell id="ApE8lTeV0Uj58Px4gvST-40" value="1" style="rounded=0;whiteSpace=wrap;html=1;fontFamily=Verdana;" parent="1" vertex="1">
          <mxGeometry x="430" y="630" width="20" height="20" as="geometry" />
        </mxCell>
        <mxCell id="ApE8lTeV0Uj58Px4gvST-41" value="A" style="rounded=0;whiteSpace=wrap;html=1;fontFamily=Verdana;" parent="1" vertex="1">
          <mxGeometry x="430" y="650" width="20" height="20" as="geometry" />
        </mxCell>
        <mxCell id="ApE8lTeV0Uj58Px4gvST-43" value="x" style="ellipse;whiteSpace=wrap;html=1;aspect=fixed;" parent="1" vertex="1">
          <mxGeometry x="350" y="610" width="20" height="20" as="geometry" />
        </mxCell>
        <mxCell id="ApE8lTeV0Uj58Px4gvST-44" value="·" style="rounded=0;whiteSpace=wrap;html=1;fontFamily=Verdana;strokeColor=#000000;" parent="1" vertex="1">
          <mxGeometry x="390" y="610" width="20" height="20" as="geometry" />
        </mxCell>
        <mxCell id="ApE8lTeV0Uj58Px4gvST-45" value="7" style="rounded=0;whiteSpace=wrap;html=1;fontFamily=Verdana;" parent="1" vertex="1">
          <mxGeometry x="390" y="630" width="20" height="20" as="geometry" />
        </mxCell>
        <mxCell id="ApE8lTeV0Uj58Px4gvST-46" value="" style="endArrow=blockThin;html=1;exitX=1;exitY=0.5;exitDx=0;exitDy=0;entryX=0;entryY=0.5;entryDx=0;entryDy=0;rounded=0;endFill=1;" parent="1" source="ApE8lTeV0Uj58Px4gvST-43" target="ApE8lTeV0Uj58Px4gvST-44" edge="1">
          <mxGeometry width="50" height="50" relative="1" as="geometry">
            <mxPoint x="490" y="820" as="sourcePoint" />
            <mxPoint x="540" y="770" as="targetPoint" />
          </mxGeometry>
        </mxCell>
        <mxCell id="ApE8lTeV0Uj58Px4gvST-47" value="" style="endArrow=blockThin;html=1;rounded=0;entryX=0;entryY=0.5;entryDx=0;entryDy=0;endFill=1;" parent="1" source="ApE8lTeV0Uj58Px4gvST-44" target="ApE8lTeV0Uj58Px4gvST-39" edge="1">
          <mxGeometry width="50" height="50" relative="1" as="geometry">
            <mxPoint x="380" y="630" as="sourcePoint" />
            <mxPoint x="400" y="630" as="targetPoint" />
          </mxGeometry>
        </mxCell>
        <mxCell id="ApE8lTeV0Uj58Px4gvST-50" value="·" style="rounded=0;whiteSpace=wrap;html=1;fontFamily=Verdana;strokeColor=#b85450;fillColor=#f8cecc;gradientColor=#ea6b66;" parent="1" vertex="1">
          <mxGeometry x="200" y="500" width="20" height="20" as="geometry" />
        </mxCell>
        <mxCell id="ApE8lTeV0Uj58Px4gvST-51" value="·" style="rounded=0;whiteSpace=wrap;html=1;fontFamily=Verdana;strokeColor=#b85450;fillColor=#f8cecc;gradientColor=#ea6b66;" parent="1" vertex="1">
          <mxGeometry x="220" y="500" width="20" height="20" as="geometry" />
        </mxCell>
        <mxCell id="ApE8lTeV0Uj58Px4gvST-53" value="·" style="rounded=0;whiteSpace=wrap;html=1;fontFamily=Verdana;strokeColor=#b85450;fillColor=#f8cecc;gradientColor=#ea6b66;" parent="1" vertex="1">
          <mxGeometry x="240" y="500" width="20" height="20" as="geometry" />
        </mxCell>
        <mxCell id="ApE8lTeV0Uj58Px4gvST-54" value="·" style="rounded=0;whiteSpace=wrap;html=1;fontFamily=Verdana;strokeColor=#b85450;fillColor=#f8cecc;gradientColor=#ea6b66;" parent="1" vertex="1">
          <mxGeometry x="260" y="500" width="20" height="20" as="geometry" />
        </mxCell>
        <mxCell id="ApE8lTeV0Uj58Px4gvST-55" value="" style="endArrow=blockThin;html=1;entryX=1;entryY=0.5;entryDx=0;entryDy=0;curved=1;endFill=1;exitX=0.5;exitY=1;exitDx=0;exitDy=0;fillColor=#f8cecc;gradientColor=#ea6b66;strokeColor=#b85450;" parent="1" source="ApE8lTeV0Uj58Px4gvST-50" target="ApE8lTeV0Uj58Px4gvST-18" edge="1">
          <mxGeometry width="50" height="50" relative="1" as="geometry">
            <mxPoint x="150" y="500" as="sourcePoint" />
            <mxPoint x="240" y="590" as="targetPoint" />
            <Array as="points">
              <mxPoint x="210" y="560" />
            </Array>
          </mxGeometry>
        </mxCell>
        <mxCell id="ApE8lTeV0Uj58Px4gvST-56" value="" style="endArrow=blockThin;html=1;entryX=0;entryY=0.5;entryDx=0;entryDy=0;exitX=0.5;exitY=1;exitDx=0;exitDy=0;curved=1;endFill=1;fillColor=#f8cecc;gradientColor=#ea6b66;strokeColor=#b85450;" parent="1" source="ApE8lTeV0Uj58Px4gvST-54" target="ApE8lTeV0Uj58Px4gvST-23" edge="1">
          <mxGeometry width="50" height="50" relative="1" as="geometry">
            <mxPoint x="280" y="490" as="sourcePoint" />
            <mxPoint x="51" y="557" as="targetPoint" />
            <Array as="points">
              <mxPoint x="270" y="560" />
            </Array>
          </mxGeometry>
        </mxCell>
        <mxCell id="ApE8lTeV0Uj58Px4gvST-57" value="" style="endArrow=blockThin;html=1;exitX=0.5;exitY=1;exitDx=0;exitDy=0;entryX=0.5;entryY=0;entryDx=0;entryDy=0;endFill=1;curved=1;fillColor=#f8cecc;gradientColor=#ea6b66;strokeColor=#b85450;" parent="1" source="ApE8lTeV0Uj58Px4gvST-51" target="ApE8lTeV0Uj58Px4gvST-33" edge="1">
          <mxGeometry width="50" height="50" relative="1" as="geometry">
            <mxPoint x="70" y="580" as="sourcePoint" />
            <mxPoint x="110" y="620" as="targetPoint" />
            <Array as="points" />
          </mxGeometry>
        </mxCell>
        <mxCell id="ApE8lTeV0Uj58Px4gvST-58" value="" style="endArrow=blockThin;html=1;exitX=0.5;exitY=1;exitDx=0;exitDy=0;entryX=0.5;entryY=0;entryDx=0;entryDy=0;endFill=1;curved=1;opacity=50;" parent="1" source="ApE8lTeV0Uj58Px4gvST-24" target="ApE8lTeV0Uj58Px4gvST-44" edge="1">
          <mxGeometry width="50" height="50" relative="1" as="geometry">
            <mxPoint x="70" y="580" as="sourcePoint" />
            <mxPoint x="110" y="620" as="targetPoint" />
            <Array as="points">
              <mxPoint x="400" y="590" />
            </Array>
          </mxGeometry>
        </mxCell>
        <mxCell id="ApE8lTeV0Uj58Px4gvST-59" value="1" style="rounded=0;whiteSpace=wrap;html=1;fontFamily=Verdana;opacity=50;textOpacity=50;" parent="1" vertex="1">
          <mxGeometry x="410" y="470" width="20" height="20" as="geometry" />
        </mxCell>
        <mxCell id="ApE8lTeV0Uj58Px4gvST-60" value="3" style="rounded=0;whiteSpace=wrap;html=1;fontFamily=Verdana;opacity=50;textOpacity=50;" parent="1" vertex="1">
          <mxGeometry x="410" y="490" width="20" height="20" as="geometry" />
        </mxCell>
        <mxCell id="ApE8lTeV0Uj58Px4gvST-61" value="·" style="rounded=0;whiteSpace=wrap;html=1;fontFamily=Verdana;opacity=50;textOpacity=50;" parent="1" vertex="1">
          <mxGeometry x="410" y="510" width="20" height="20" as="geometry" />
        </mxCell>
        <mxCell id="ApE8lTeV0Uj58Px4gvST-63" value="" style="endArrow=blockThin;html=1;rounded=0;entryX=0.5;entryY=1;entryDx=0;entryDy=0;endFill=1;exitX=0.5;exitY=0;exitDx=0;exitDy=0;opacity=50;" parent="1" source="ApE8lTeV0Uj58Px4gvST-25" target="ApE8lTeV0Uj58Px4gvST-61" edge="1">
          <mxGeometry width="50" height="50" relative="1" as="geometry">
            <mxPoint x="250" y="630" as="sourcePoint" />
            <mxPoint x="400" y="530" as="targetPoint" />
          </mxGeometry>
        </mxCell>
        <mxCell id="ApE8lTeV0Uj58Px4gvST-64" value="3" style="rounded=0;whiteSpace=wrap;html=1;fontFamily=Verdana;fillColor=#f8cecc;gradientColor=#ea6b66;strokeColor=#b85450;" parent="1" vertex="1">
          <mxGeometry x="240" y="420" width="20" height="20" as="geometry" />
        </mxCell>
        <mxCell id="ApE8lTeV0Uj58Px4gvST-65" value="1" style="rounded=0;whiteSpace=wrap;html=1;fontFamily=Verdana;fillColor=#f8cecc;gradientColor=#ea6b66;strokeColor=#b85450;" parent="1" vertex="1">
          <mxGeometry x="240" y="440" width="20" height="20" as="geometry" />
        </mxCell>
        <mxCell id="ApE8lTeV0Uj58Px4gvST-66" value="·" style="rounded=0;whiteSpace=wrap;html=1;fontFamily=Verdana;fillColor=#f8cecc;gradientColor=#ea6b66;strokeColor=#b85450;" parent="1" vertex="1">
          <mxGeometry x="240" y="460" width="20" height="20" as="geometry" />
        </mxCell>
        <mxCell id="ApE8lTeV0Uj58Px4gvST-68" value="" style="endArrow=blockThin;html=1;rounded=0;endFill=1;exitX=0.5;exitY=0;exitDx=0;exitDy=0;entryX=0.5;entryY=1;entryDx=0;entryDy=0;fillColor=#f8cecc;gradientColor=#ea6b66;strokeColor=#b85450;" parent="1" source="ApE8lTeV0Uj58Px4gvST-53" target="ApE8lTeV0Uj58Px4gvST-66" edge="1">
          <mxGeometry width="50" height="50" relative="1" as="geometry">
            <mxPoint x="300" y="490" as="sourcePoint" />
            <mxPoint x="200" y="480" as="targetPoint" />
          </mxGeometry>
        </mxCell>
        <mxCell id="ApE8lTeV0Uj58Px4gvST-71" value="U" style="rounded=0;whiteSpace=wrap;html=1;fontFamily=Verdana;strokeColor=#000000;opacity=50;textOpacity=50;" parent="1" vertex="1">
          <mxGeometry x="320" y="460" width="20" height="20" as="geometry" />
        </mxCell>
        <mxCell id="ApE8lTeV0Uj58Px4gvST-72" value="" style="endArrow=blockThin;html=1;rounded=0;endFill=1;exitX=1;exitY=0.5;exitDx=0;exitDy=0;entryX=0;entryY=0.5;entryDx=0;entryDy=0;fillColor=#f8cecc;gradientColor=#ea6b66;strokeColor=#b85450;" parent="1" source="ApE8lTeV0Uj58Px4gvST-66" target="ApE8lTeV0Uj58Px4gvST-71" edge="1">
          <mxGeometry width="50" height="50" relative="1" as="geometry">
            <mxPoint x="200" y="480" as="sourcePoint" />
            <mxPoint x="200" y="460" as="targetPoint" />
          </mxGeometry>
        </mxCell>
        <mxCell id="ApE8lTeV0Uj58Px4gvST-73" value="" style="endArrow=blockThin;html=1;endFill=1;exitX=0;exitY=0.5;exitDx=0;exitDy=0;entryX=1;entryY=0.5;entryDx=0;entryDy=0;curved=1;opacity=50;" parent="1" source="ApE8lTeV0Uj58Px4gvST-61" target="ApE8lTeV0Uj58Px4gvST-71" edge="1">
          <mxGeometry width="50" height="50" relative="1" as="geometry">
            <mxPoint x="210" y="430" as="sourcePoint" />
            <mxPoint x="330" y="450" as="targetPoint" />
            <Array as="points">
              <mxPoint x="380" y="520" />
              <mxPoint x="380" y="470" />
            </Array>
          </mxGeometry>
        </mxCell>
        <mxCell id="ApE8lTeV0Uj58Px4gvST-74" value="" style="endArrow=blockThin;html=1;rounded=0;endFill=1;exitX=0;exitY=1;exitDx=0;exitDy=0;entryX=1;entryY=0;entryDx=0;entryDy=0;fillColor=#f8cecc;gradientColor=#ea6b66;strokeColor=#b85450;" parent="1" source="ApE8lTeV0Uj58Px4gvST-71" target="ApE8lTeV0Uj58Px4gvST-54" edge="1">
          <mxGeometry width="50" height="50" relative="1" as="geometry">
            <mxPoint x="210" y="430" as="sourcePoint" />
            <mxPoint x="330" y="430" as="targetPoint" />
          </mxGeometry>
        </mxCell>
      </root>
    </mxGraphModel>
  </diagram>
</mxfile>
